<?xml version="1.0" encoding="UTF-8"?>
<svg width="249px" height="60px" viewBox="0 0 249 60" version="1.1" xmlns="http://www.w3.org/2000/svg" xmlns:xlink="http://www.w3.org/1999/xlink">
    <!-- Generator: Sketch 52.1 (67048) - http://www.bohemiancoding.com/sketch -->
    <title>Group 3</title>
    <desc>Created with Sketch.</desc>
    <g id="Page-1" stroke="none" stroke-width="1" fill="none" fill-rule="evenodd">
        <g id="trgovina01" transform="translate(-130.000000, -42.000000)" fill="#EF3340">
            <g id="Group-3" transform="translate(130.000000, 42.000000)">
                <path d="M229.386939,9.7857931 L241.222371,9.7857931 L241.222371,7.00303448 L229.386939,7.00303448 L229.386939,9.7857931 Z M229.386939,15.7733793 L241.222371,15.7733793 L241.222371,12.989931 L229.386939,12.989931 L229.386939,15.7733793 Z M229.386939,21.7602759 L241.222371,21.7602759 L241.222371,18.9775172 L229.386939,18.9775172 L229.386939,21.7602759 Z M248.997931,14.3816552 C248.997931,21.9430345 242.867427,28.0726897 235.305,28.0726897 C227.743263,28.0726897 221.61,21.9430345 221.61,14.3816552 C221.61,6.82027586 227.743263,0.689241379 235.305,0.689241379 C242.867427,0.689241379 248.997931,6.82027586 248.997931,14.3816552 Z M125.868465,19.7547586 L116.597526,19.7547586 L106.770648,35.1857931 L106.770648,35.2837241 L100.497366,35.2837241 L100.497366,35.1857931 L100.497366,19.7547586 L92.1706953,19.7547586 L92.1706953,58.6092414 L100.497366,58.6092414 L100.497366,42.734069 L106.770648,42.734069 L117.374875,58.6092414 L126.589945,58.6092414 L113.26603,38.6823448 L125.868465,19.7547586 Z M210.555366,32.5761379 C210.555366,28.5802759 207.502529,27.0816552 204.005493,27.0816552 L195.954723,27.0816552 L195.954723,27.092 L195.954723,38.072 L204.005493,38.072 C207.502529,38.072 210.555366,36.5175172 210.555366,32.5761379 Z M210.555366,43.9533793 L222.158352,58.6092414 L212.554263,58.6092414 L202.061776,45.009931 L195.954723,45.009931 L195.954723,58.6092414 L187.628742,58.6092414 L187.628742,19.754069 L203.616474,19.754069 C211.167175,19.754069 219.049645,22.5857931 219.049645,32.409931 C219.049645,39.0706207 215.27533,42.4568276 210.555366,43.9533793 Z M140.154582,58.6092414 L171.318208,58.6092414 L171.318208,51.2823448 L140.154582,51.2823448 L140.154582,58.6092414 Z M140.154582,42.8444138 L171.318208,42.8444138 L171.318208,35.5175172 L140.154582,35.5175172 L140.154582,42.8444138 Z M140.154582,27.0816552 L171.318208,27.0816552 L171.318208,19.7547586 L140.154582,19.7547586 L140.154582,27.0816552 Z M70.0565983,39.1823448 C70.0565983,32.354069 66.004313,26.6926897 57.9549224,26.6926897 C49.8489723,26.6926897 45.7980665,32.354069 45.7980665,39.1823448 C45.7980665,46.0085517 49.8489723,51.6706207 57.9549224,51.6706207 C66.004313,51.6706207 70.0565983,46.0085517 70.0565983,39.1823448 Z M78.6060582,39.1823448 C78.6060582,49.7278621 71.723036,59.3864828 57.9549224,59.3864828 C44.1868089,59.3864828 37.3037867,49.7278621 37.3037867,39.1823448 C37.3037867,28.6354483 44.1868089,18.9768276 57.9549224,18.9768276 C71.723036,18.9768276 78.6060582,28.6354483 78.6060582,39.1823448 Z M5.2738338,19.3933793 L23.9281413,19.3933793 L23.9281413,46.5361379 C23.9281413,55.6954483 17.4872493,58.969931 10.0482881,58.969931 C6.16154294,58.969931 2.4424072,58.0816552 0,56.972 L0,49.2002759 C2.16512742,50.5326897 5.16278393,51.309931 8.05008033,51.309931 C12.2127258,51.309931 15.6000914,49.9782069 15.6000914,45.5926897 L15.6000914,26.8864828 L5.2738338,26.8864828 L5.2738338,19.3933793 Z" id="Fill-1"></path>
            </g>
        </g>
    </g>
</svg>